{
    "accessors": [
        {
            "bufferView": 0,
            "componentType": 5126,
            "count": 145,
            "max": [
                0.0377499982714653,
                0.0377499982714653,
                0.029750000685453415
            ],
            "min": [
                -0.0377499982714653,
                -0.0377499982714653,
                0.029750000685453415
            ],
            "name": "mesh178_coord_accessor",
            "type": "VEC3"
        },
        {
            "bufferView": 1,
            "componentType": 5126,
            "count": 145,
            "max": [
                0.0,
                0.0,
                1.0
            ],
            "min": [
                0.0,
                0.0,
                1.0
            ],
            "name": "mesh178_norm_accessor",
            "type": "VEC3"
        },
        {
            "bufferView": 2,
            "componentType": 5125,
            "count": 432,
            "max": [
                144
            ],
            "min": [
                0
            ],
            "name": "mesh178_idx_accessor",
            "type": "SCALAR"
        },
        {
            "bufferView": 3,
            "componentType": 5126,
            "count": 288,
            "max": [
                0.0377499982714653,
                0.0377499982714653,
                0.029750000685453415
            ],
            "min": [
                -0.0377499982714653,
                -0.0377499982714653,
                0.0
            ],
            "name": "mesh179_coord_accessor",
            "type": "VEC3"
        },
        {
            "bufferView": 4,
            "componentType": 5126,
            "count": 288,
            "max": [
                1.0,
                1.0,
                0.0
            ],
            "min": [
                -1.0,
                -1.0,
                0.0
            ],
            "name": "mesh179_norm_accessor",
            "type": "VEC3"
        },
        {
            "bufferView": 5,
            "componentType": 5125,
            "count": 864,
            "max": [
                287
            ],
            "min": [
                0
            ],
            "name": "mesh179_idx_accessor",
            "type": "SCALAR"
        },
        {
            "bufferView": 6,
            "componentType": 5126,
            "count": 145,
            "max": [
                0.0377499982714653,
                0.0377499982714653,
                0.0
            ],
            "min": [
                -0.0377499982714653,
                -0.0377499982714653,
                0.0
            ],
            "name": "mesh180_coord_accessor",
            "type": "VEC3"
        },
        {
            "bufferView": 7,
            "componentType": 5126,
            "count": 145,
            "max": [
                -0.0,
                -0.0,
                -1.0
            ],
            "min": [
                -0.0,
                -0.0,
                -1.0
            ],
            "name": "mesh180_norm_accessor",
            "type": "VEC3"
        },
        {
            "bufferView": 8,
            "componentType": 5125,
            "count": 432,
            "max": [
                144
            ],
            "min": [
                0
            ],
            "name": "mesh180_idx_accessor",
            "type": "SCALAR"
        }
    ],
    "asset": {
        "generator": "ONSHAPE BY PTC INC, 1.219",
        "version": "2.0"
    },
    "bufferViews": [
        {
            "buffer": 0,
            "byteLength": 1740,
            "name": "mesh178_coord_bufferView",
            "target": 34962
        },
        {
            "buffer": 0,
            "byteLength": 1740,
            "byteOffset": 1740,
            "name": "mesh178_norm_bufferView",
            "target": 34962
        },
        {
            "buffer": 0,
            "byteLength": 1728,
            "byteOffset": 3480,
            "name": "mesh178_idx_bufferView",
            "target": 34963
        },
        {
            "buffer": 0,
            "byteLength": 3456,
            "byteOffset": 5208,
            "name": "mesh179_coord_bufferView",
            "target": 34962
        },
        {
            "buffer": 0,
            "byteLength": 3456,
            "byteOffset": 8664,
            "name": "mesh179_norm_bufferView",
            "target": 34962
        },
        {
            "buffer": 0,
            "byteLength": 3456,
            "byteOffset": 12120,
            "name": "mesh179_idx_bufferView",
            "target": 34963
        },
        {
            "buffer": 0,
            "byteLength": 1740,
            "byteOffset": 15576,
            "name": "mesh180_coord_bufferView",
            "target": 34962
        },
        {
            "buffer": 0,
            "byteLength": 1740,
            "byteOffset": 17316,
            "name": "mesh180_norm_bufferView",
            "target": 34962
        },
        {
            "buffer": 0,
            "byteLength": 1728,
            "byteOffset": 19056,
            "name": "mesh180_idx_bufferView",
            "target": 34963
        }
    ],
    "buffers": [
        {
            "byteLength": 20784,
            "name": "Total_buffer",
            "uri": "data:application/octet-stream;base64,"
        }
    ],
    "extensionsUsed": [
        "PTC_onshape_metadata"
    ],
    "materials": [
        {
            "doubleSided": true,
            "name": "0.615686_0.811765_0.929412_0.000000_0.000000",
            "pbrMetallicRoughness": {
                "baseColorFactor": [
                    0.615686297416687,
                    0.8117647171020508,
                    0.929411768913269,
                    1.0
                ],
                "metallicFactor": 0.0
            }
        },
        {
            "doubleSided": true,
            "name": "0.901961_0.901961_0.901961_0.000000_0.000000",
            "pbrMetallicRoughness": {
                "baseColorFactor": [
                    0.9019607901573181,
                    0.9019607901573181,
                    0.9019607901573181,
                    1.0
                ],
                "metallicFactor": 0.0
            }
        },
        {
            "doubleSided": true,
            "name": "0.874510_0.447059_0.317647_0.000000_0.000000",
            "pbrMetallicRoughness": {
                "baseColorFactor": [
                    0.8745098114013672,
                    0.4470588266849518,
                    0.3176470696926117,
                    1.0
                ],
                "metallicFactor": 0.0
            }
        }
    ],
    "meshes": [
        {
            "name": "mesh178_mesh",
            "primitives": [
                {
                    "attributes": {
                        "NORMAL": 1,
                        "POSITION": 0
                    },
                    "indices": 2,
                    "material": 0
                }
            ]
        },
        {
            "name": "mesh179_mesh",
            "primitives": [
                {
                    "attributes": {
                        "NORMAL": 4,
                        "POSITION": 3
                    },
                    "indices": 5,
                    "material": 0
                }
            ]
        },
        {
            "name": "mesh180_mesh",
            "primitives": [
                {
                    "attributes": {
                        "NORMAL": 7,
                        "POSITION": 6
                    },
                    "indices": 8,
                    "material": 0
                }
            ]
        }
    ],
    "nodes": [
        {
            "mesh": 0,
            "name": "mesh178"
        },
        {
            "mesh": 1,
            "name": "mesh179"
        },
        {
            "mesh": 2,
            "name": "mesh180"
        }
    ],
    "scene": 0,
    "scenes": [
        {
            "name": "Root",
            "nodes": [
                0,
                1,
                2
            ]
        }
    ]
}